<svg viewBox="0 0 24 24" fill="none" xmlns="http://www.w3.org/2000/svg">
<path d="M16.0444 11.6111V8.70776C16.0444 8.21536 15.6452 7.81616 15.1528 7.81616H8.84521C8.35284 7.81623 7.95368 8.21539 7.95361 8.70776V11.6169C7.95361 11.8256 8.02666 12.0283 8.15967 12.1882L11.314 15.9783C11.6709 16.407 12.3289 16.4068 12.6851 15.9783L15.8384 12.1814C15.9715 12.0212 16.0444 11.819 16.0444 11.6111ZM16.9653 11.6111C16.9653 12.0342 16.8165 12.4442 16.5464 12.7693L13.3921 16.5662C12.6677 17.4378 11.3304 17.4369 10.606 16.5662L7.45264 12.7761C7.18173 12.4504 7.03369 12.0398 7.03369 11.6169V8.70776C7.03375 7.70729 7.84474 6.8963 8.84521 6.89624H15.1528C16.1533 6.89624 16.9653 7.70725 16.9653 8.70776V11.6111Z" fill="currentColor"/>
</svg>
