<svg viewBox="0 0 24 24" fill="none" xmlns="http://www.w3.org/2000/svg">
<path opacity="0.35" d="M11.4062 19.3228C11.4062 19.4803 11.4688 19.6313 11.5802 19.7427C11.6915 19.854 11.8425 19.9166 12 19.9166C12.1575 19.9166 12.3085 19.854 12.4198 19.7427C12.5312 19.6313 12.5938 19.4803 12.5938 19.3228C12.5938 14.4409 12.5938 9.55895 12.5938 4.677C12.5938 4.51953 12.5312 4.36851 12.4198 4.25716C12.3085 4.14581 12.1575 4.08325 12 4.08325C11.8425 4.08325 11.6915 4.14581 11.5802 4.25716C11.4688 4.36851 11.4063 4.51953 11.4063 4.677C11.4063 13.4762 11.4063 10.6117 11.4062 19.3228Z" fill="currentColor"/>
<path d="M15.5625 14.375C16.8742 14.375 17.9375 13.3117 17.9375 12C17.9375 10.6883 16.8742 9.625 15.5625 9.625L8.4375 9.625C7.12582 9.625 6.0625 10.6883 6.0625 12C6.0625 13.3117 7.12582 14.375 8.4375 14.375L15.5625 14.375Z" fill="currentColor"/>
</svg>
