<svg viewBox="0 0 24 24" fill="none" xmlns="http://www.w3.org/2000/svg">
<path fill-rule="evenodd" clip-rule="evenodd" d="M11.9991 5.82471C11.0481 5.82471 10.266 6.14044 9.76051 6.79244C9.35506 7.31534 9.16254 7.99952 9.16254 8.77041H9.97331C9.97331 8.12981 10.133 7.63524 10.4012 7.28924C10.7161 6.88318 11.2312 6.63547 11.9991 6.63547C12.6949 6.63547 13.1867 6.85034 13.507 7.19184C13.8309 7.53713 14.0271 8.06277 14.0271 8.77265V10.6893H8.35178C7.90401 10.6893 7.54102 11.0523 7.54102 11.5001V16.3646C7.54102 16.8124 7.90401 17.1754 8.35178 17.1754H15.6487C16.0964 17.1754 16.4594 16.8124 16.4594 16.3646V11.5001C16.4594 11.0523 16.0964 10.6893 15.6487 10.6893H14.8379V8.77265C14.8379 7.91757 14.5999 7.17193 14.0983 6.63717C13.5932 6.09864 12.8682 5.82471 11.9991 5.82471ZM8.35178 11.5001H15.6487V16.3646H8.35178V11.5001Z" fill="currentColor"/>
</svg>
